<svg id="Laag_1" data-name="Laag 1" xmlns="http://www.w3.org/2000/svg" xmlns:xlink="http://www.w3.org/1999/xlink" viewBox="0 0 2295.73 390.64"><defs><style>.cls-1{fill:none;}.cls-2{clip-path:url(#clip-path);}.cls-3{fill:#707793;}.cls-4{fill:#2e3047;}.cls-5{fill:#3bba9c;}</style><clipPath id="clip-path" transform="translate(866.35 -125.93)"><rect class="cls-1" x="-1" y="71.63" width="1282" height="362"/></clipPath></defs><title>invoice-wave</title><g class="cls-2"><path class="cls-3" d="M1045.63,266.82c-169.8,48-298.05,11-427-40.35,4.33,20.37,8.42,40.77,10.84,61.29a482.08,482.08,0,0,1,3.17,62.07H1281V125.93C1224.08,185,1147.62,238,1045.63,266.82Z" transform="translate(866.35 -125.93)"/><path class="cls-4" d="M1429.38,276.25c-113.54,44.73-289.85,92.42-468.33,55.19-300-62.58-404-177.32-716.27-187.75s-459.14,213.82-722.39,276.4c-153.24,36.44-296.1,16.31-388.74-6.87V516.57H1429.38Z" transform="translate(866.35 -125.93)"/><path class="cls-5" d="M1281,493.25V269.35c-53.43,59.1-125.21,112.06-221,140.89-305,91.85-467.24-127.58-764.6-163.3C86.56,221.85-80.37,390.57-161.25,493.25Z" transform="translate(866.35 -125.93)"/></g></svg>